<?xml version="1.0" encoding="utf-8"?>
<!-- Generator: Adobe Illustrator 27.7.0, SVG Export Plug-In . SVG Version: 6.00 Build 0)  -->
<svg version="1.1" id="Layer_1" xmlns="http://www.w3.org/2000/svg" xmlns:xlink="http://www.w3.org/1999/xlink" x="0px" y="0px"
	 viewBox="0 0 1366 768" style="enable-background:new 0 0 1366 768;" xml:space="preserve">
<style type="text/css">
	.st0{fill:#FFFFFF;}
</style>
<g>
	<path class="st0" d="M1099.49,686.25L875.21,461.97C899.07,426.74,913,384.25,913,338.5C913,216.72,814.28,118,692.5,118
		S472,216.72,472,338.5S570.72,559,692.5,559c45.87,0,88.47-14.01,123.76-37.99l224.24,224.24c12.5,12.5,32.76,12.5,45.25,0
		l13.74-13.74C1111.99,719.01,1111.99,698.75,1099.49,686.25z M692,469c-71.8,0-130-58.2-130-130s58.2-130,130-130s130,58.2,130,130
		S763.8,469,692,469z"/>
</g>
</svg>
